<mxfile host="65bd71144e">
    <diagram id="W89EgYDWE0vb2bvmwvep" name="Page-1">
        <mxGraphModel dx="1478" dy="1830" grid="1" gridSize="10" guides="1" tooltips="1" connect="1" arrows="1" fold="1" page="1" pageScale="1" pageWidth="850" pageHeight="1100" math="0" shadow="0">
            <root>
                <mxCell id="0"/>
                <mxCell id="1" parent="0"/>
                <mxCell id="14" value="VPC" style="rounded=0;whiteSpace=wrap;html=1;align=left;verticalAlign=top;" parent="1" vertex="1">
                    <mxGeometry x="-70" y="-70" width="500" height="700" as="geometry"/>
                </mxCell>
                <mxCell id="13" value="PRIVATE Subnet" style="rounded=0;whiteSpace=wrap;html=1;align=left;verticalAlign=top;" parent="1" vertex="1">
                    <mxGeometry x="20" y="420" width="330" height="170" as="geometry"/>
                </mxCell>
                <mxCell id="12" value="PRIVATE Subnet" style="rounded=0;whiteSpace=wrap;html=1;align=left;verticalAlign=top;" parent="1" vertex="1">
                    <mxGeometry x="10" y="190" width="330" height="170" as="geometry"/>
                </mxCell>
                <mxCell id="11" value="PUBLIC Subnet" style="rounded=0;whiteSpace=wrap;html=1;align=left;verticalAlign=top;" parent="1" vertex="1">
                    <mxGeometry x="10" width="400" height="170" as="geometry"/>
                </mxCell>
                <mxCell id="10" value="Managed RDS instance" style="rounded=1;whiteSpace=wrap;html=1;horizontal=1;verticalAlign=top;align=left;" parent="1" vertex="1">
                    <mxGeometry x="40" y="450" width="235" height="130" as="geometry"/>
                </mxCell>
                <mxCell id="9" value="EC2 instance" style="rounded=1;whiteSpace=wrap;html=1;horizontal=1;verticalAlign=top;align=left;" parent="1" vertex="1">
                    <mxGeometry x="70" y="222.5" width="200" height="105" as="geometry"/>
                </mxCell>
                <mxCell id="8" value="EC2 instance" style="rounded=1;whiteSpace=wrap;html=1;horizontal=1;verticalAlign=top;align=left;" parent="1" vertex="1">
                    <mxGeometry x="60" y="30" width="200" height="110" as="geometry"/>
                </mxCell>
                <mxCell id="5" value="" style="edgeStyle=none;html=1;" parent="1" source="2" target="4" edge="1">
                    <mxGeometry relative="1" as="geometry"/>
                </mxCell>
                <mxCell id="2" value="FE - app_frontend (node.js)" style="rounded=1;whiteSpace=wrap;html=1;" parent="1" vertex="1">
                    <mxGeometry x="131" y="55" width="120" height="60" as="geometry"/>
                </mxCell>
                <mxCell id="7" value="" style="edgeStyle=none;html=1;" parent="1" source="4" target="6" edge="1">
                    <mxGeometry relative="1" as="geometry"/>
                </mxCell>
                <mxCell id="4" value="BE- app_backend" style="whiteSpace=wrap;html=1;rounded=1;" parent="1" vertex="1">
                    <mxGeometry x="131" y="260" width="120" height="60" as="geometry"/>
                </mxCell>
                <mxCell id="6" value="DB" style="ellipse;whiteSpace=wrap;html=1;rounded=1;" parent="1" vertex="1">
                    <mxGeometry x="151" y="475" width="80" height="80" as="geometry"/>
                </mxCell>
                <mxCell id="18" style="edgeStyle=none;html=1;entryX=0.5;entryY=0;entryDx=0;entryDy=0;" parent="1" source="15" target="2" edge="1">
                    <mxGeometry relative="1" as="geometry"/>
                </mxCell>
                <mxCell id="15" value="Internet GW" style="shape=parallelogram;perimeter=parallelogramPerimeter;whiteSpace=wrap;html=1;fixedSize=1;rounded=0;" parent="1" vertex="1">
                    <mxGeometry x="111" y="-100" width="120" height="60" as="geometry"/>
                </mxCell>
                <mxCell id="17" style="edgeStyle=none;html=1;entryX=0.5;entryY=0;entryDx=0;entryDy=0;" parent="1" source="16" target="15" edge="1">
                    <mxGeometry relative="1" as="geometry"/>
                </mxCell>
                <mxCell id="16" value="" style="aspect=fixed;perimeter=ellipsePerimeter;html=1;align=center;shadow=0;dashed=0;spacingTop=3;image;image=img/lib/active_directory/internet_globe.svg;rounded=0;" parent="1" vertex="1">
                    <mxGeometry x="150" y="-250" width="50" height="50" as="geometry"/>
                </mxCell>
                <mxCell id="22" style="edgeStyle=none;html=1;entryX=1;entryY=0.5;entryDx=0;entryDy=0;exitX=0.145;exitY=0.145;exitDx=0;exitDy=0;exitPerimeter=0;" parent="1" source="20" target="15" edge="1">
                    <mxGeometry relative="1" as="geometry"/>
                </mxCell>
                <mxCell id="20" value="NAT" style="outlineConnect=0;dashed=0;verticalLabelPosition=bottom;verticalAlign=top;align=center;html=1;shape=mxgraph.aws3.vpc_nat_gateway;fillColor=#F58534;gradientColor=none;rounded=0;" parent="1" vertex="1">
                    <mxGeometry x="310" y="43" width="69" height="72" as="geometry"/>
                </mxCell>
                <mxCell id="21" style="edgeStyle=none;html=1;entryX=0.5;entryY=1;entryDx=0;entryDy=0;entryPerimeter=0;exitX=0.75;exitY=0;exitDx=0;exitDy=0;" parent="1" source="4" target="20" edge="1">
                    <mxGeometry relative="1" as="geometry"/>
                </mxCell>
                <mxCell id="23" value="" style="shape=image;verticalLabelPosition=bottom;labelBackgroundColor=default;verticalAlign=top;aspect=fixed;imageAspect=0;image=https://www.vectorlogo.zone/logos/terraformio/terraformio-ar21.png;" vertex="1" parent="1">
                    <mxGeometry x="-342.79" y="-70" width="200" height="100" as="geometry"/>
                </mxCell>
                <mxCell id="28" value="" style="edgeStyle=none;html=1;" edge="1" parent="1" source="24" target="27">
                    <mxGeometry relative="1" as="geometry"/>
                </mxCell>
                <mxCell id="30" value="" style="edgeStyle=none;html=1;" edge="1" parent="1" source="24" target="29">
                    <mxGeometry relative="1" as="geometry"/>
                </mxCell>
                <mxCell id="31" value="" style="edgeStyle=none;html=1;" edge="1" parent="1" source="24" target="29">
                    <mxGeometry relative="1" as="geometry"/>
                </mxCell>
                <mxCell id="32" value="" style="edgeStyle=none;html=1;" edge="1" parent="1" source="24" target="29">
                    <mxGeometry relative="1" as="geometry"/>
                </mxCell>
                <mxCell id="35" value="" style="edgeStyle=none;html=1;" edge="1" parent="1" source="24" target="34">
                    <mxGeometry relative="1" as="geometry"/>
                </mxCell>
                <mxCell id="24" value="" style="shape=image;verticalLabelPosition=bottom;labelBackgroundColor=default;verticalAlign=top;aspect=fixed;imageAspect=0;image=https://miro.medium.com/v2/resize:fit:1075/0*_NKWW9qcekBPRnJ0.png;" vertex="1" parent="1">
                    <mxGeometry x="-550" y="140" width="207.21" height="106" as="geometry"/>
                </mxCell>
                <mxCell id="26" value="GITHUB" style="shape=image;verticalLabelPosition=bottom;labelBackgroundColor=default;verticalAlign=top;aspect=fixed;imageAspect=0;image=https://github.githubassets.com/assets/GitHub-Mark-ea2971cee799.png;" vertex="1" parent="1">
                    <mxGeometry x="-300" y="320" width="140" height="140" as="geometry"/>
                </mxCell>
                <mxCell id="27" value="app_backend" style="whiteSpace=wrap;html=1;verticalAlign=top;labelBackgroundColor=default;" vertex="1" parent="1">
                    <mxGeometry x="-290.00499999999994" y="70" width="120" height="60" as="geometry"/>
                </mxCell>
                <mxCell id="29" value="app_frontend&lt;br&gt;" style="whiteSpace=wrap;html=1;verticalAlign=top;labelBackgroundColor=default;" vertex="1" parent="1">
                    <mxGeometry x="-240.00499999999994" y="160" width="120" height="60" as="geometry"/>
                </mxCell>
                <mxCell id="34" value="terraform" style="whiteSpace=wrap;html=1;verticalAlign=top;labelBackgroundColor=default;" vertex="1" parent="1">
                    <mxGeometry x="-290.005" y="240" width="120" height="60" as="geometry"/>
                </mxCell>
            </root>
        </mxGraphModel>
    </diagram>
</mxfile>